<?xml version="1.0" standalone="no"?><!DOCTYPE svg PUBLIC "-//W3C//DTD SVG 1.1//EN" "http://www.w3.org/Graphics/SVG/1.1/DTD/svg11.dtd"><svg t="1523943772948" class="icon" style="" viewBox="0 0 1024 1024" version="1.1" xmlns="http://www.w3.org/2000/svg" p-id="930" xmlns:xlink="http://www.w3.org/1999/xlink" width="200" height="200"><defs><style type="text/css"></style></defs><path d="M745 280c18.2-18.9 18.2-49.1 0-67.5L547.9 14.2c-18.8-18.3-48.8-18.3-67.1 0L19.4 478.3c-18.2 18.9-18.2 49.1 0 67.5l461.4 464.1c18.8 18.3 48.8 18.3 67.1 0L745 811.5c18.2-18.9 18.2-49.1 0-67.5-18.8-18.3-48.8-18.3-67.1 0l-130 130.8c-18.8 18.3-48.8 18.3-67.1 0L153.6 545.7c-18.2-18.9-18.2-49.1 0-67.5l327.2-329.1c18.8-18.3 48.8-18.3 67.1 0L678 280c18.8 18.3 48.8 18.3 67 0z m264.3 198.3L879.2 347.4c-18.8-18.3-48.8-18.3-67.1 0-18.8 18.3-18.8 48.5 0 67.5l63 63.3c18.2 18.9 18.2 49.1 0 67.5l-63 63.3c-18.2 18.9-18.2 49.1 0 67.5 18.8 18.3 48.8 18.3 67.1 0l130.1-130.8c18.2-18.9 18.2-49.1 0-67.4z m-645 33.7c0 83.5 67.1 150.9 150.1 150.9s150-67.4 150-150.9-67.1-150.9-150.1-150.9-150 67.4-150 150.9z m228.3-0.6c-0.6 43.8-35.3 78.7-78.3 78.7S436 555.2 436 511.4c0-43.2 34.7-78.7 78.3-78.7 43.6 0 78.3 34.9 78.3 78.7z" p-id="931" fill="#8a8a8a"></path></svg>