<?xml version="1.0" standalone="no"?><!DOCTYPE svg PUBLIC "-//W3C//DTD SVG 1.1//EN" "http://www.w3.org/Graphics/SVG/1.1/DTD/svg11.dtd"><svg t="1549951701025" class="icon" style="" viewBox="0 0 1024 1024" version="1.1" xmlns="http://www.w3.org/2000/svg" p-id="1987" xmlns:xlink="http://www.w3.org/1999/xlink" width="200" height="200"><defs><style type="text/css"></style></defs><path d="M326.41536 676.52608h-54.66368l-21.7856-82.60864H126.77632l-21.7856 82.60864H51.91424v-0.94976l110.5152-371.48416h54.26688l109.71904 372.43392z m-83.57888-111.80544l-54.26432-201.28768-54.66624 201.28768h108.93056zM646.46912 502.53056c0 7.75424-4.15744 14.12608-12.47744 19.1104-8.31488 4.98176-18.94912 7.4752-31.88736 7.4752h-146.1632v147.40992h-55.06048V305.03936h201.22368c12.93312 0 23.5648 2.45504 31.88736 7.36 8.32 4.90752 12.47744 11.2384 12.47744 18.98752v171.14368z m-55.05536-2.84928v-165.44512h-135.46752v165.44512h135.46752zM979.2 502.53056c0 7.75424-4.15744 14.12608-12.47488 19.1104-8.32256 4.98176-18.94912 7.4752-31.88736 7.4752h-146.16576v147.40992h-55.05792V305.03936h201.22368c12.93568 0 23.56224 2.45504 31.88736 7.36 8.31744 4.90752 12.47488 11.2384 12.47488 18.98752v171.14368z m-55.05792-2.84928v-165.44512h-135.47008v165.44512h135.47008z" fill="#dbdbdb" p-id="1988"></path></svg>