<?xml version="1.0" standalone="no"?><!DOCTYPE svg PUBLIC "-//W3C//DTD SVG 1.1//EN" "http://www.w3.org/Graphics/SVG/1.1/DTD/svg11.dtd"><svg t="1524120550982" class="icon" style="" viewBox="0 0 1024 1024" version="1.1" xmlns="http://www.w3.org/2000/svg" p-id="3005" xmlns:xlink="http://www.w3.org/1999/xlink" width="200" height="200"><defs><style type="text/css"></style></defs><path d="M123.8 256.8a63 63 0 1 0 126 0 63 63 0 1 0-126 0z m731.9 29H357.9c-19.9 0-36.1-16.2-36.1-36.1 0-19.9 16.2-36.1 36.1-36.1h497.9c19.9 0 36.1 16.2 36.1 36.1-0.1 20-16.2 36.1-36.2 36.1zM123.8 512a63 63 0 1 0 126 0 63 63 0 1 0-126 0z m731.9 29.1H357.9c-19.9 0-36.1-16.2-36.1-36.1 0-19.9 16.2-36.1 36.1-36.1h497.9c19.9 0 36.1 16.2 36.1 36.1-0.1 19.9-16.2 36.1-36.2 36.1zM123.8 767.2a63 63 0 1 0 126 0 63 63 0 1 0-126 0z m731.9 29.1H357.9c-19.9 0-36.1-16.2-36.1-36.1 0-19.9 16.2-36.1 36.1-36.1h497.9c19.9 0 36.1 16.2 36.1 36.1-0.1 20-16.2 36.1-36.2 36.1z" p-id="3006" fill="#ffffff"></path></svg>