<?xml version="1.0" standalone="no"?><!DOCTYPE svg PUBLIC "-//W3C//DTD SVG 1.1//EN" "http://www.w3.org/Graphics/SVG/1.1/DTD/svg11.dtd"><svg t="1525333645025" class="icon" style="" viewBox="0 0 1024 1024" version="1.1" xmlns="http://www.w3.org/2000/svg" p-id="14189" xmlns:xlink="http://www.w3.org/1999/xlink" width="200" height="200"><defs><style type="text/css"></style></defs><path d="M824 0H200c-39.8 0-72 32.2-72 72v880c0 39.8 32.2 72 72 72h624c39.8 0 72-32.2 72-72V72c0-39.8-32.2-72-72-72z m0 943H200V699c0 0.5 0.4 1 1 1h622c0.5 0 1-0.4 1-1v244z m0-314c0-0.5-0.4-1-1-1H201c-0.5 0-1 0.4-1 1V385c0 0.5 0.4 1 1 1h622c0.5 0 1-0.4 1-1v244z m0-314c0-0.5-0.4-1-1-1H201c-0.5 0-1 0.4-1 1V72h624v243zM285 821a36 36 0 1 0 72 0 36 36 0 1 0-72 0z m0-314a36 36 0 1 0 72 0 36 36 0 1 0-72 0z m0-314a36 36 0 1 0 72 0 36 36 0 1 0-72 0z" p-id="14190"></path></svg>