<?xml version="1.0" standalone="no"?><!DOCTYPE svg PUBLIC "-//W3C//DTD SVG 1.1//EN" "http://www.w3.org/Graphics/SVG/1.1/DTD/svg11.dtd"><svg t="1525333686946" class="icon" style="" viewBox="0 0 1024 1024" version="1.1" xmlns="http://www.w3.org/2000/svg" p-id="14375" xmlns:xlink="http://www.w3.org/1999/xlink" width="200" height="200"><defs><style type="text/css"></style></defs><path d="M888 64H135c-39.7 0-72 32.3-72 72v752c0 39.7 32.3 72 72 72h277c19.9 0 36-16.1 36-36s-16.1-36-36-36H135V136h753v752h-84c-19.9 0-36 16.1-36 36s16.1 36 36 36h84c39.7 0 72-32.3 72-72V136c0-39.7-32.3-72-72-72z" p-id="14376"></path><path d="M640 924a36 36 0 1 0 72 0 36 36 0 1 0-72 0zM676 384c-19.9 0-36 16.1-36 36v376c0 19.9 16.1 36 36 36s36-16.1 36-36V420c0-19.9-16.1-36-36-36zM540 256H228c-19.9 0-36 16.1-36 36s16.1 36 36 36h312c19.9 0 36-16.1 36-36s-16.1-36-36-36zM412 448H228c-19.9 0-36 16.1-36 36s16.1 36 36 36h184c19.9 0 36-16.1 36-36s-16.1-36-36-36z m0 192H228c-19.9 0-36 16.1-36 36s16.1 36 36 36h184c19.9 0 36-16.1 36-36s-16.1-36-36-36z" p-id="14377"></path></svg>