<?xml version="1.0" standalone="no"?><!DOCTYPE svg PUBLIC "-//W3C//DTD SVG 1.1//EN" "http://www.w3.org/Graphics/SVG/1.1/DTD/svg11.dtd"><svg t="1527681843043" class="icon" style="" viewBox="0 0 1024 1024" version="1.1" xmlns="http://www.w3.org/2000/svg" p-id="4453" xmlns:xlink="http://www.w3.org/1999/xlink" width="200" height="200"><defs><style type="text/css"></style></defs><path d="M972.18048 317.58848c-25.15456-59.47392-61.16352-112.88576-107.02336-158.7456-45.85984-45.85984-99.26656-81.8688-158.74048-107.02336-61.58848-26.05056-126.99648-39.26016-194.40128-39.26016-67.41504 0-132.82304 13.2096-194.41664 39.26016-59.47904 25.15456-112.88576 61.16352-158.7456 107.02336a502.69184 502.69184 0 0 0-48.73728 56.55552c-0.54784 0.67584-1.05984 1.3824-1.54624 2.11968a497.18272 497.18272 0 0 0-56.74496 100.06528C25.76896 379.18208 12.55936 444.59008 12.55936 512s13.2096 132.82304 39.26016 194.41152c25.15456 59.47392 61.16352 112.88576 107.02336 158.7456 45.85984 45.85984 99.27168 81.8688 158.7456 107.02336 61.5936 26.05056 127.0016 39.26016 194.41664 39.26016 67.40992 0 132.81792-13.2096 194.40128-39.26016 59.47392-25.15456 112.88064-61.16352 158.74048-107.02336 45.85984-45.85984 81.8688-99.27168 107.02336-158.7456 26.05056-61.58848 39.26016-127.0016 39.26016-194.41152 0.01024-67.40992-13.19936-132.81792-39.24992-194.41152z m-84.10624 436.12672c-35.10784-18.14528-76.9792-33.74592-123.264-45.93664 12.22144-53.21216 19.38944-110.4384 21.02784-169.52832h172.3136c-4.45952 77.4912-28.6208 151.24992-70.07744 215.46496zM65.84832 538.25024h172.288c1.6384 59.08992 8.81152 116.31104 21.03808 169.52832-46.2848 12.19072-88.15104 27.79136-123.24864 45.93664-41.45664-64.21504-65.61792-137.97376-70.07744-215.46496z m72.7296-272.03584c34.85184 17.72032 76.19584 32.95744 121.79456 44.89216-12.9536 54.656-20.53632 113.65376-22.23104 174.6432h-172.288c4.55168-79.13472 29.63968-154.37312 72.72448-219.53536z m347.18208 219.53024H290.66752c1.66912-57.1392 8.78592-112.21504 20.85888-163.01056 55.13728 10.80832 113.54112 16.95744 174.2336 18.32448v144.68608z m0 52.5056v139.264c-61.14304 1.3824-119.9616 7.60832-175.45216 18.57024-11.3408-49.35168-18.0224-102.6304-19.6352-157.82912l195.08736-0.00512z m52.5056 0h195.0464c-1.6128 55.20384-8.28928 108.48256-19.62496 157.82912-55.49056-10.9568-114.29376-17.18784-175.41632-18.57024v-139.25888z m0-52.5056V341.05856c60.672-1.37216 119.0656-7.51616 174.19264-18.3296 12.06784 50.80064 19.17952 105.87136 20.84864 163.01568H538.2656z m0-197.20704V68.35712c18.29888 4.58752 36.3008 13.96224 53.78048 28.07296 26.71616 21.56032 50.95424 52.91008 72.04864 93.16352 13.16864 25.13408 24.58624 52.7616 34.16576 82.31936-50.048 9.5232-104.23808 15.25248-159.99488 16.62464zM431.98464 96.43008c17.47968-14.1056 35.4816-23.48544 53.77536-28.07296v220.1856c-55.77728-1.37216-109.9776-7.10144-160.0256-16.62464 9.58976-29.55776 21.00736-57.1904 34.18112-82.32448 21.09952-40.25344 45.34784-71.59808 72.06912-93.16352z m53.77536 633.60512v225.60768c-18.29376-4.58752-36.29568-13.96736-53.77536-28.07296-26.71616-21.56544-50.96448-52.91008-72.064-93.16864-13.93152-26.58304-25.91744-55.94112-35.82976-87.43424 50.49856-9.70752 105.27744-15.54432 161.66912-16.93184z m106.28096 197.53984c-17.47456 14.1056-35.4816 23.48544-53.78048 28.07296v-225.6128c56.3712 1.38752 111.13984 7.22944 161.64352 16.93696-9.9072 31.49824-21.888 60.85632-35.8144 87.43424-21.08928 40.25856-45.33248 71.6032-72.04864 93.16864z m193.79712-441.8304c-1.69472-60.98944-9.27232-119.99232-22.2208-174.6432 45.5936-11.9296 86.94272-27.16672 121.8048-44.88704 43.07968 65.16224 68.1728 140.40576 72.72448 219.53024h-172.30848z m42.1888-289.77152a455.94624 455.94624 0 0 1 25.33376 27.54048c-30.19264 14.52032-65.22368 26.92608-103.67488 36.89984-10.79808-34.19648-23.87456-66.16064-39.08608-95.19104-15.12448-28.86656-31.88224-53.92384-49.93536-74.93632 62.25408 21.89824 119.31648 57.64096 167.36256 105.68704zM363.3664 90.28608c-18.05824 21.00736-34.82112 46.06976-49.95072 74.93632-15.21664 29.03552-28.30336 60.99968-39.10656 95.19616-38.45632-9.97376-73.48736-22.37952-103.66976-36.90496a454.40512 454.40512 0 0 1 25.33376-27.54048c48.0512-48.0512 105.12384-83.79392 167.39328-105.68704z m-167.39328 737.7408a455.2192 455.2192 0 0 1-28.57472-31.39584c30.50496-15.01184 66.13504-27.81184 105.3696-38.07744 11.09504 36.09088 24.68864 69.77536 40.64768 100.224 15.1296 28.86656 31.89248 53.92896 49.95072 74.93632-62.26944-21.89312-119.34208-57.63584-167.39328-105.68704z m464.68608 105.68192c18.05824-21.00736 34.81088-46.06976 49.93536-74.93632 15.9488-30.44352 29.5424-64.12288 40.6272-100.21376 39.22944 10.2656 74.86464 23.0656 105.37472 38.07232a455.14752 455.14752 0 0 1-28.57472 31.39072c-48.04096 48.0512-105.10336 83.79392-167.36256 105.68704z" p-id="4454"></path></svg>