<?xml version="1.0" standalone="no"?><!DOCTYPE svg PUBLIC "-//W3C//DTD SVG 1.1//EN" "http://www.w3.org/Graphics/SVG/1.1/DTD/svg11.dtd"><svg t="1523946130279" class="icon" style="" viewBox="0 0 1024 1024" version="1.1" xmlns="http://www.w3.org/2000/svg" p-id="4449" xmlns:xlink="http://www.w3.org/1999/xlink" width="200" height="200"><defs><style type="text/css"></style></defs><path d="M932.4 442.2L560.3 84.1c-27.4-24.8-69.1-24.8-96.5 0L91.6 442.2c-14.8 13.3-15.9 36-2.6 50.8 13.3 14.8 36.1 15.9 50.8 2.6L512 137.5l372.2 358.1c14.8 13.3 37.5 12.2 50.8-2.6 13.3-14.8 12.2-37.5-2.6-50.8zM833 575c-19.9 0-36 16.1-36 36v277H654V648c0-39.8-32.2-72-72-72H442c-39.8 0-72 32.2-72 72v240H227V611c0-19.9-16.1-36-36-36s-36 16.1-36 36v277c0 39.8 32.2 72 72 72h570c39.8 0 72-32.2 72-72V611c0-19.9-16.1-36-36-36z m-391 73h140v240H442V648z" p-id="4450" fill="#ffffff"></path></svg>