<?xml version="1.0" standalone="no"?><!DOCTYPE svg PUBLIC "-//W3C//DTD SVG 1.1//EN" "http://www.w3.org/Graphics/SVG/1.1/DTD/svg11.dtd"><svg t="1552359120586" class="icon" style="" viewBox="0 0 1024 1024" version="1.1" xmlns="http://www.w3.org/2000/svg" p-id="510" xmlns:xlink="http://www.w3.org/1999/xlink" width="200" height="200"><defs><style type="text/css"></style></defs><path d="M728 112.002c-136.69 0-247.516 110.826-247.516 247.516v21.906c-45.351-51.364-111.731-83.784-185.638-83.784H78.27v92.82c0 136.691 110.826 247.516 247.516 247.516h154.698v278.458h61.877V452.336h154.7c136.689 0 247.515-110.823 247.515-247.514v-92.82H728zM325.786 576.097c-102.37 0-185.64-83.271-185.64-185.637v-30.941h154.701c53.24 0 103.967 22.902 139.257 62.845l21 23.81 11.907 29.372c8.94 22.118 13.474 45.534 13.474 69.611v30.941H325.786z m556.915-371.275c0 102.367-83.271 185.638-185.64 185.638h-154.7v-30.942c0-102.364 83.271-185.635 185.639-185.635h154.701v30.939z" p-id="511" fill="#dbdbdb"></path></svg>