<?xml version="1.0" standalone="no"?><!DOCTYPE svg PUBLIC "-//W3C//DTD SVG 1.1//EN" "http://www.w3.org/Graphics/SVG/1.1/DTD/svg11.dtd"><svg t="1549951827227" class="icon" style="" viewBox="0 0 1024 1024" version="1.1" xmlns="http://www.w3.org/2000/svg" p-id="4891" xmlns:xlink="http://www.w3.org/1999/xlink" width="200" height="200"><defs><style type="text/css"></style></defs><path d="M512 128c234.666667 0 426.666667 192 426.666667 426.666667v341.333333H85.333333V554.666667C85.333333 320 277.333333 128 512 128zM128 853.333333h768V554.666667c0-211.2-172.8-384-384-384S128 343.466667 128 554.666667v298.666666z" p-id="4892"></path><path d="M256 938.666667h512v42.666666H256z" p-id="4893"></path><path d="M661.333333 576m-64 0a64 64 0 1 0 128 0 64 64 0 1 0-128 0Z" p-id="4894"></path><path d="M42.666667 597.333333h42.666666v128H42.666667zM938.666667 597.333333h42.666666v128h-42.666666zM490.666667 42.666667h42.666666v85.333333h-42.666666z" p-id="4895"></path><path d="M362.666667 576m-64 0a64 64 0 1 0 128 0 64 64 0 1 0-128 0Z" p-id="4896"></path></svg>