<?xml version="1.0" standalone="no"?><!DOCTYPE svg PUBLIC "-//W3C//DTD SVG 1.1//EN" "http://www.w3.org/Graphics/SVG/1.1/DTD/svg11.dtd"><svg t="1533972580653" class="icon" style="" viewBox="0 0 1024 1024" version="1.1" xmlns="http://www.w3.org/2000/svg" p-id="2995" xmlns:xlink="http://www.w3.org/1999/xlink" width="200" height="200"><defs><style type="text/css"></style></defs><path d="M885.9 127.9H132.8c-39.8 0-72 32.2-72 72v625.9c0 39.8 32.2 72 72 72h753.1c39.8 0 72-32.2 72-72V199.9c0-39.7-32.3-72-72-72z m-77.2 72L540.6 424l-1.6 1.3-1.4 1.5c-6.8 7.2-16 11.1-25.9 11.2h-0.2c-9.8 0-19-3.9-25.8-10.9l-1.4-1.4-273.8-225.8h598.2z m77.2 625.9H132.8V229.2l302.8 249.5c20.4 20.2 47.2 31.3 76 31.3h0.5c28.9-0.1 55.9-11.4 76.2-31.9L886 229.3v596.5h-0.1z" p-id="2996" fill="#e6e6e6"></path></svg>