<?xml version="1.0" standalone="no"?><!DOCTYPE svg PUBLIC "-//W3C//DTD SVG 1.1//EN" "http://www.w3.org/Graphics/SVG/1.1/DTD/svg11.dtd"><svg t="1549951789484" class="icon" style="" viewBox="0 0 1024 1024" version="1.1" xmlns="http://www.w3.org/2000/svg" p-id="3938" xmlns:xlink="http://www.w3.org/1999/xlink" width="200" height="200"><defs><style type="text/css"></style></defs><path d="M995.213116 271.075254L546.246504 9.102212A68.32348 68.32348 0 0 0 511.999431 0c-11.946653 0-23.72264 3.015108-34.247073 9.102212L28.785746 271.075254A55.751049 55.751049 0 0 0 0 318.804979c0 19.342201 10.922655 37.31907 28.785746 47.729725l448.966612 261.973042c10.524433 6.030216 22.243531 9.102212 34.247073 9.102212 11.946653 0 23.72264-3.071997 34.247073-9.102212l448.966612-261.973042a55.751049 55.751049 0 0 0 28.785746-47.786614 55.751049 55.751049 0 0 0-28.785746-47.672836zM511.999431 580.778021L63.032819 318.804979 511.999431 56.831937l448.966612 261.973042L511.999431 580.778021z m431.729298-60.415933a34.076407 34.076407 0 0 1 43.918174 8.533324c9.443545 13.08443 5.461327 30.663077-9.272879 39.196401L529.464301 830.007967a34.247073 34.247073 0 0 1-17.237315 4.551106 34.247073 34.247073 0 0 1-17.237314-4.551106L46.02306 568.091813c-14.506651-8.533324-18.716424-25.998193-9.21599-39.253289a33.621296 33.621296 0 0 1 43.463063-8.305769L511.999431 772.436475l431.729298-252.074387z m0 189.43979a34.247073 34.247073 0 0 1 43.918174 8.476435c9.443545 13.08443 5.461327 30.719966-9.272879 39.25329L529.464301 1019.447756a34.247073 34.247073 0 0 1-17.237315 4.551106 34.247073 34.247073 0 0 1-17.237314-4.551106L46.02306 757.474714c-14.506651-8.533324-18.716424-25.941305-9.21599-39.196401a33.621296 33.621296 0 0 1 43.463063-8.362657L511.999431 961.876265l431.729298-252.131276z" p-id="3939"></path></svg>