<?xml version="1.0" standalone="no"?><!DOCTYPE svg PUBLIC "-//W3C//DTD SVG 1.1//EN" "http://www.w3.org/Graphics/SVG/1.1/DTD/svg11.dtd"><svg t="1525333126642" class="icon" style="" viewBox="0 0 1024 1024" version="1.1" xmlns="http://www.w3.org/2000/svg" p-id="4369" xmlns:xlink="http://www.w3.org/1999/xlink" width="200" height="200"><defs><style type="text/css"></style></defs><path d="M895.969 336.015l0 575.953c0 26.497-21.498 47.995-47.998 47.995L176.028 959.963c-26.498 0-47.996-21.498-47.996-47.995L128.032 112.033c0-26.498 21.499-47.996 47.996-47.996L623.99 64.037c26.498 0 63.494 15.499 81.994 33.997l155.986 155.987C880.469 272.52 895.969 309.517 895.969 336.015zM831.973 384.011 623.99 384.011c-26.498 0-47.996-21.499-47.996-47.996L575.994 128.032 192.026 128.032l0 767.936 639.946 0L831.972 384.011zM639.99 320.016l187.984 0c-3-8.5-7.5-16.999-11-20.499L660.488 143.03c-3.5-3.5-12-7.999-20.498-10.999L639.99 320.016z" p-id="4370" fill="#ffffff"></path><path d="M458.56 832l-92.027 0L366.533 361.855l116.89 0c29.708 0 53.118 1.615 70.231 4.843 17.114 3.229 30.944 8.396 41.493 15.5 19.374 13.133 34.601 30.464 45.69 51.987 11.085 21.529 16.629 44.561 16.629 69.102 0 44.994-14.854 80.942-44.56 107.849-29.708 26.912-69.747 40.362-120.12 40.362L458.56 651.498 458.56 832zM458.56 572.064l24.217 0c25.616 0 45.257-5.54 58.93-16.63 13.668-11.085 20.505-26.962 20.505-47.628 0-21.312-6.62-37.184-19.859-47.628-13.237-10.439-33.313-15.661-60.221-15.661L458.56 444.517 458.56 572.064z" p-id="4371" fill="#ffffff"></path></svg>