<?xml version="1.0" standalone="no"?><!DOCTYPE svg PUBLIC "-//W3C//DTD SVG 1.1//EN" "http://www.w3.org/Graphics/SVG/1.1/DTD/svg11.dtd"><svg t="1525333257651" class="icon" style="" viewBox="0 0 1024 1024" version="1.1" xmlns="http://www.w3.org/2000/svg" p-id="3029" xmlns:xlink="http://www.w3.org/1999/xlink" width="200" height="200"><defs><style type="text/css"></style></defs><path d="M888 64H136c-39.8 0-72 32.2-72 72v752c0 39.8 32.2 72 72 72h752c39.8 0 72-32.2 72-72V136c0-39.8-32.2-72-72-72z m0 824H136V136h752v752z" p-id="3030" fill="#ffffff"></path><path d="M420 740h312c19.9 0 36-16.1 36-36s-16.1-36-36-36H420c-19.9 0-36 16.1-36 36s16.1 36 36 36z m0-384h312c19.9 0 36-16.1 36-36s-16.1-36-36-36H420c-19.9 0-36 16.1-36 36s16.1 36 36 36z m0 192h312c19.9 0 36-16.1 36-36s-16.1-36-36-36H420c-19.9 0-36 16.1-36 36s16.1 36 36 36zM256 704a36 36 0 1 0 72 0 36 36 0 1 0-72 0zM256 320a36 36 0 1 0 72 0 36 36 0 1 0-72 0zM256 512a36 36 0 1 0 72 0 36 36 0 1 0-72 0z" p-id="3031" fill="#ffffff"></path></svg>