<?xml version="1.0" standalone="no"?><!DOCTYPE svg PUBLIC "-//W3C//DTD SVG 1.1//EN" "http://www.w3.org/Graphics/SVG/1.1/DTD/svg11.dtd"><svg t="1529545041086" class="icon" style="" viewBox="0 0 1024 1024" version="1.1" xmlns="http://www.w3.org/2000/svg" p-id="2993" xmlns:xlink="http://www.w3.org/1999/xlink" width="200" height="200"><defs><style type="text/css"></style></defs><path d="M954.168 504.138c-3.3-19.598-21.799-32.898-41.397-29.598-19.599 3.3-32.898 21.799-29.598 41.397 3.2 18.999 4.8 39.797 4.8 60.296 0 100.392-39.098 194.786-110.092 265.78S612.493 952.005 512 952.005c-100.393 0-194.886-39.097-265.88-110.092-70.995-70.994-110.092-165.488-110.092-265.88s39.097-194.886 110.091-265.88S411.607 200.06 512 200.06c4.2 0 8.4 0.1 12.6 0.2l-81.795 81.794c-14.099 14.1-14.099 36.898 0 50.897 14.099 14.099 36.897 14.099 50.896 0l135.79-135.79c14.1-14.1 14.1-36.898 0-50.897l-135.79-135.69c-14.099-14.099-36.897-14.099-50.896 0-14.099 14.1-14.099 36.898 0 50.896l66.595 66.596c-59.495 0.3-117.291 12.199-171.687 35.197-53.396 22.598-101.293 54.896-142.39 95.993-41.097 41.097-73.394 88.993-95.993 142.39-23.398 55.296-35.297 113.891-35.297 174.387S75.932 695.124 99.23 750.42c22.599 53.396 54.896 101.293 95.993 142.39 41.097 41.097 88.994 73.394 142.39 95.993C392.909 1012.2 451.504 1024 512 1024s119.091-11.8 174.387-35.197c53.396-22.499 101.293-54.796 142.39-95.893 41.097-41.097 73.394-88.994 95.993-142.29 23.398-55.196 35.197-113.892 35.197-174.387 0-24.698-2-48.997-5.8-72.095z" p-id="2994" fill="#e6e6e6"></path></svg>