<?xml version="1.0" standalone="no"?><!DOCTYPE svg PUBLIC "-//W3C//DTD SVG 1.1//EN" "http://www.w3.org/Graphics/SVG/1.1/DTD/svg11.dtd"><svg t="1528191231830" class="icon" style="" viewBox="0 0 1024 1024" version="1.1" xmlns="http://www.w3.org/2000/svg" p-id="4012" xmlns:xlink="http://www.w3.org/1999/xlink" width="200" height="200"><defs><style type="text/css"></style></defs><path d="M701 959.4H325c-116.4 0-211.1-100.4-211.1-223.8V357.9c0-117.6 86.8-215.6 197.6-223.1l2.7 39.1c-90.3 6.1-161.1 87-161.1 184v377.7c0 101.8 77.2 184.6 172 184.6H701c94.8 0 172-82.8 172-184.6V357.9c0-97.1-70.7-177.9-161.1-184l2.7-39.1c110.8 7.5 197.6 105.5 197.6 223.1v377.7C912.1 859 817.4 959.4 701 959.4z" fill="#ffffff" p-id="4013"></path><path d="M741.5 429.3L485.8 736.1c-9.8 11.7-27.2 13.2-38.7 3.3L276.5 593.2c-11.5-9.8-12.8-27.1-3-38.5 9.8-11.4 27.1-12.8 38.5-3l128.5 110.1c11.6 9.9 29 8.4 38.7-3.3l220.2-264.3c9.7-11.6 26.9-13.2 38.5-3.5 11.7 9.7 13.3 27 3.6 38.6z m17.5-21M640.8 239.8H385.2c-48.4 0-87.8-39.4-87.8-87.8s39.4-87.8 87.8-87.8h255.7c48.4 0 87.8 39.4 87.8 87.8s-39.5 87.8-87.9 87.8zM385.2 103.4c-26.8 0-48.6 21.8-48.6 48.6s21.8 48.6 48.6 48.6h255.7c26.8 0 48.6-21.8 48.6-48.6s-21.8-48.6-48.6-48.6H385.2z" fill="#ffffff" p-id="4014"></path></svg>