<?xml version="1.0" standalone="no"?><!DOCTYPE svg PUBLIC "-//W3C//DTD SVG 1.1//EN" "http://www.w3.org/Graphics/SVG/1.1/DTD/svg11.dtd"><svg t="1549951568971" class="icon" style="" viewBox="0 0 1024 1024" version="1.1" xmlns="http://www.w3.org/2000/svg" p-id="1117" xmlns:xlink="http://www.w3.org/1999/xlink" width="200" height="200"><defs><style type="text/css"></style></defs><path d="M842.435462 256.149971h-48.890451v-56.189026c0-53.189611-20.795938-103.379809-58.588557-141.172427-37.792619-37.99258-87.882835-58.788518-140.972466-58.788518H199.561023c-53.089631 0-103.179848 20.795938-140.872486 58.688537-37.792619 37.792619-58.588557 87.982816-58.588557 141.172428V595.083773c0 53.189611 20.795938 103.379809 58.588557 141.172427 37.792619 37.892599 87.782855 58.688537 140.872486 58.688537h55.089241v48.890451c0 98.980668 80.984183 179.964851 179.96485 179.964851h407.820348c98.980668 0 179.964851-80.984183 179.96485-179.964851V436.114821c0-98.980668-80.984183-179.964851-179.96485-179.96485z m-642.874439 487.804725c-39.492287 0-76.785003-15.496973-104.879515-43.791447-28.194493-28.194493-43.691467-65.48721-43.691467-105.079476V199.860965c0-39.592267 15.496973-76.884983 43.691467-105.179457C122.876001 66.487014 160.068737 50.890061 199.561023 50.890061H593.983988c39.492287 0 76.785003 15.496973 104.879515 43.791447 28.194493 28.194493 43.691467 65.58719 43.691467 105.179457V256.149971h-307.939856c-98.980668 0-179.964851 80.984183-179.96485 179.96485v307.939856l-55.089241-0.099981z m770.14958 99.980473c0 33.7934-13.297403 65.787151-37.492677 89.882445-24.195274 24.195274-56.089045 37.492677-89.882445 37.492677H434.615114c-33.7934 0-65.787151-13.297403-89.882445-37.492677-24.195274-24.195274-37.492677-56.089045-37.492677-89.882445V436.114821c0-33.7934 13.297403-65.787151 37.492677-89.882445 24.195274-24.195274 56.089045-37.492677 89.882445-37.492677h407.820348c33.7934 0 65.787151 13.297403 89.882445 37.492677 24.195274 24.195274 37.492677 56.089045 37.492677 89.882445l-0.099981 407.820348z" p-id="1118" fill="#cdcdcd"></path></svg>